# xmcd CD database file generated by OrangeCD 5.2
#
# Track frame offsets:
#	183
#	18303
#	33285
#	49408
#	61743
#	72558
#	84573
#	92745
#	111843
#	125773
#	140710
#	152358
#	164383
#	176533
#	188048
#	204290
#	216935
#	228808
#	241105
#	254550
#	267355
#	284070
#
# Disc length: 4043 seconds
#
# Revision: 0
# Processed by: cddbd v1.5.1PL0 Copyright (c) Steve Scherf et al.
# Submitted via: OrangeCD 5.2
#
DISCID=3f0fc916
DTITLE=Various Artist - Blues Roots
DYEAR=1989
DGENRE=Blues Compilation
TTITLE0=Fred McDowell - Frisco Lines
TTITLE1=Joe Callicott - Fare You Well Baby Blues
TTITLE2=R. L. Burnside - Long Haired Doney
TTITLE3=Joe Williams - Mean Stepfather
TTITLE4=R. C. Smith - Don't Drive Me Away
TTITLE5=Mance Lipscomb - Long Tall Girl Got Stuck On Me
TTITLE6=Lil' Son Jackson - Red River Blues
TTITLE7=The Black Ace - I Am The Black Ace
TTITLE8=Alex Moore - Whistling Alex Moore Blues
TTITLE9=Lowell Fulson - Texas Blues
TTITLE10=Lightnin' Hopkins - Take A Walk
TTITLE11=John Jackson - Bear Cat Blues
TTITLE12=Guitar Slim and Jelly Belly - Snowing And Raining
TTITLE13=Jesse Fuller - Got A Date At Half Past Eight
TTITLE14=Lightnin' Hopkins and Barbara Dane - You Got Another Man
TTITLE15=Juke Boy Bonner - Struggle Here In Houston
TTITLE16=Joe Turner - Trouble Blues
TTITLE17=John Little John - Dream
TTITLE18=Big Mama Thornton - I'm Felling Alright
TTITLE19=Johnny Young - Sometimes I Cry
TTITLE20=Clifton Chenier - Black Snake Blues
TTITLE21=Earl Hooker - Two Bugs And A Roach
EXTD=
EXTT0=
EXTT1=
EXTT2=
EXTT3=
EXTT4=
EXTT5=
EXTT6=
EXTT7=
EXTT8=
EXTT9=
EXTT10=
EXTT11=
EXTT12=
EXTT13=
EXTT14=
EXTT15=
EXTT16=
EXTT17=
EXTT18=
EXTT19=
EXTT20=
EXTT21=
PLAYORDER=
